%FSTAX23Y23*%
%MOIN*%
%SFA1B1*%

%IPPOS*%
%ADD10C,0.005000*%
%ADD11C,0.023620*%
%ADD12C,0.009840*%
%ADD13C,0.007870*%
%ADD14C,0.010000*%
%ADD15C,0.002000*%
%LN2004_lcd-1*%
%LPD*%
G36*
X00701Y01087D02*
X00691D01*
Y01062*
X00661*
Y01087*
X00651*
Y01198*
X00701*
Y01087*
G37*
G36*
X00501Y01087D02*
X00491D01*
Y01062*
X0046*
Y01087*
X0045*
Y01198*
X00501*
Y01087*
G37*
G36*
X00601Y01087D02*
X00591D01*
Y01062*
X0056*
Y01087*
X0055*
Y01198*
X00601*
Y01087*
G37*
G54D10*
X00647Y01688D02*
D01*
X00646Y01692*
X00646Y01697*
X00645Y01702*
X00644Y01707*
X00642Y01712*
X0064Y01716*
X00638Y01721*
X00636Y01725*
X00633Y01729*
X0063Y01733*
X00627Y01737*
X00623Y0174*
X00619Y01743*
X00615Y01746*
X00611Y01749*
X00607Y01751*
X00602Y01753*
X00597Y01755*
X00593Y01756*
X00588Y01757*
X00583Y01758*
X00578Y01758*
X00573*
X00568Y01758*
X00563Y01757*
X00558Y01756*
X00554Y01755*
X00549Y01753*
X00544Y01751*
X0054Y01749*
X00536Y01746*
X00532Y01743*
X00528Y0174*
X00524Y01737*
X00521Y01733*
X00518Y01729*
X00515Y01725*
X00513Y01721*
X00511Y01716*
X00509Y01712*
X00507Y01707*
X00506Y01702*
X00505Y01697*
X00505Y01692*
X00505Y01688*
X00505Y01683*
X00505Y01678*
X00506Y01673*
X00507Y01668*
X00509Y01663*
X00511Y01659*
X00513Y01654*
X00515Y0165*
X00518Y01646*
X00521Y01642*
X00524Y01638*
X00528Y01635*
X00532Y01632*
X00536Y01629*
X0054Y01626*
X00544Y01624*
X00549Y01622*
X00554Y0162*
X00558Y01619*
X00563Y01618*
X00568Y01617*
X00573Y01617*
X00578*
X00583Y01617*
X00588Y01618*
X00593Y01619*
X00597Y0162*
X00602Y01622*
X00607Y01624*
X00611Y01626*
X00615Y01629*
X00619Y01632*
X00623Y01635*
X00627Y01638*
X0063Y01642*
X00633Y01646*
X00636Y0165*
X00638Y01654*
X0064Y01659*
X00642Y01663*
X00644Y01668*
X00645Y01673*
X00646Y01678*
X00646Y01683*
X00647Y01688*
X00371Y01748D02*
Y01823D01*
Y01198D02*
Y01688D01*
X00781Y01748D02*
Y01823D01*
Y01198D02*
Y01688D01*
X00371Y01823D02*
X00781D01*
X00371Y01198D02*
X00781D01*
G54D11*
X0733Y01994D02*
D01*
X0733Y01994*
X0733Y01995*
X0733Y01996*
X07329Y01997*
X07329Y01998*
X07329Y01998*
X07329Y01999*
X07328Y02*
X07328Y02*
X07327Y02001*
X07327Y02002*
X07326Y02002*
X07325Y02003*
X07325Y02003*
X07324Y02004*
X07323Y02004*
X07323Y02004*
X07322Y02005*
X07321Y02005*
X0732Y02005*
X07319Y02005*
X07318Y02005*
X07318*
X07317Y02005*
X07316Y02005*
X07315Y02005*
X07314Y02005*
X07314Y02004*
X07313Y02004*
X07312Y02004*
X07311Y02003*
X07311Y02003*
X0731Y02002*
X0731Y02002*
X07309Y02001*
X07309Y02*
X07308Y02*
X07308Y01999*
X07307Y01998*
X07307Y01998*
X07307Y01997*
X07307Y01996*
X07306Y01995*
X07306Y01994*
X07306Y01994*
X07306Y01993*
X07306Y01992*
X07307Y01991*
X07307Y0199*
X07307Y0199*
X07307Y01989*
X07308Y01988*
X07308Y01987*
X07309Y01987*
X07309Y01986*
X0731Y01985*
X0731Y01985*
X07311Y01984*
X07311Y01984*
X07312Y01983*
X07313Y01983*
X07314Y01983*
X07314Y01982*
X07315Y01982*
X07316Y01982*
X07317Y01982*
X07318Y01982*
X07318*
X07319Y01982*
X0732Y01982*
X07321Y01982*
X07322Y01982*
X07323Y01983*
X07323Y01983*
X07324Y01983*
X07325Y01984*
X07325Y01984*
X07326Y01985*
X07327Y01985*
X07327Y01986*
X07328Y01987*
X07328Y01987*
X07329Y01988*
X07329Y01989*
X07329Y0199*
X07329Y0199*
X0733Y01991*
X0733Y01992*
X0733Y01993*
X0733Y01994*
X05574Y02005D02*
D01*
X05574Y02005*
X05574Y02006*
X05574Y02007*
X05573Y02008*
X05573Y02009*
X05573Y02009*
X05573Y0201*
X05572Y02011*
X05572Y02011*
X05571Y02012*
X05571Y02013*
X0557Y02013*
X05569Y02014*
X05569Y02014*
X05568Y02015*
X05567Y02015*
X05567Y02015*
X05566Y02016*
X05565Y02016*
X05564Y02016*
X05563Y02016*
X05562Y02016*
X05562*
X05561Y02016*
X0556Y02016*
X05559Y02016*
X05558Y02016*
X05558Y02015*
X05557Y02015*
X05556Y02015*
X05555Y02014*
X05555Y02014*
X05554Y02013*
X05554Y02013*
X05553Y02012*
X05553Y02011*
X05552Y02011*
X05552Y0201*
X05551Y02009*
X05551Y02009*
X05551Y02008*
X05551Y02007*
X0555Y02006*
X0555Y02005*
X0555Y02005*
X0555Y02004*
X0555Y02003*
X05551Y02002*
X05551Y02001*
X05551Y02001*
X05551Y02*
X05552Y01999*
X05552Y01998*
X05553Y01998*
X05553Y01997*
X05554Y01996*
X05554Y01996*
X05555Y01995*
X05555Y01995*
X05556Y01994*
X05557Y01994*
X05558Y01994*
X05558Y01993*
X05559Y01993*
X0556Y01993*
X05561Y01993*
X05562Y01993*
X05562*
X05563Y01993*
X05564Y01993*
X05565Y01993*
X05566Y01993*
X05567Y01994*
X05567Y01994*
X05568Y01994*
X05569Y01995*
X05569Y01995*
X0557Y01996*
X05571Y01996*
X05571Y01997*
X05572Y01998*
X05572Y01998*
X05573Y01999*
X05573Y02*
X05573Y02001*
X05573Y02001*
X05574Y02002*
X05574Y02003*
X05574Y02004*
X05574Y02005*
G54D12*
X0732Y01909D02*
D01*
X0732Y01909*
X0732Y01909*
X0732Y0191*
X0732Y0191*
X0732Y0191*
X0732Y01911*
X0732Y01911*
X07319Y01911*
X07319Y01911*
X07319Y01912*
X07319Y01912*
X07319Y01912*
X07318Y01912*
X07318Y01913*
X07318Y01913*
X07317Y01913*
X07317Y01913*
X07317Y01913*
X07317Y01913*
X07316Y01913*
X07316Y01913*
X07315Y01913*
X07315*
X07315Y01913*
X07314Y01913*
X07314Y01913*
X07314Y01913*
X07313Y01913*
X07313Y01913*
X07313Y01913*
X07313Y01913*
X07312Y01912*
X07312Y01912*
X07312Y01912*
X07312Y01912*
X07311Y01911*
X07311Y01911*
X07311Y01911*
X07311Y01911*
X07311Y0191*
X07311Y0191*
X07311Y0191*
X0731Y01909*
X0731Y01909*
X0731Y01909*
X0731Y01908*
X0731Y01908*
X07311Y01907*
X07311Y01907*
X07311Y01907*
X07311Y01906*
X07311Y01906*
X07311Y01906*
X07311Y01906*
X07312Y01905*
X07312Y01905*
X07312Y01905*
X07312Y01905*
X07313Y01904*
X07313Y01904*
X07313Y01904*
X07313Y01904*
X07314Y01904*
X07314Y01904*
X07314Y01904*
X07315Y01904*
X07315Y01904*
X07315*
X07316Y01904*
X07316Y01904*
X07317Y01904*
X07317Y01904*
X07317Y01904*
X07317Y01904*
X07318Y01904*
X07318Y01904*
X07318Y01905*
X07319Y01905*
X07319Y01905*
X07319Y01905*
X07319Y01906*
X07319Y01906*
X0732Y01906*
X0732Y01906*
X0732Y01907*
X0732Y01907*
X0732Y01907*
X0732Y01908*
X0732Y01908*
X0732Y01909*
X05564Y0192D02*
D01*
X05564Y0192*
X05564Y0192*
X05564Y01921*
X05564Y01921*
X05564Y01921*
X05564Y01922*
X05564Y01922*
X05563Y01922*
X05563Y01922*
X05563Y01923*
X05563Y01923*
X05563Y01923*
X05562Y01923*
X05562Y01924*
X05562Y01924*
X05561Y01924*
X05561Y01924*
X05561Y01924*
X05561Y01924*
X0556Y01924*
X0556Y01924*
X05559Y01924*
X05559*
X05559Y01924*
X05558Y01924*
X05558Y01924*
X05558Y01924*
X05557Y01924*
X05557Y01924*
X05557Y01924*
X05557Y01924*
X05556Y01923*
X05556Y01923*
X05556Y01923*
X05556Y01923*
X05555Y01922*
X05555Y01922*
X05555Y01922*
X05555Y01922*
X05555Y01921*
X05555Y01921*
X05555Y01921*
X05554Y0192*
X05554Y0192*
X05554Y0192*
X05554Y01919*
X05554Y01919*
X05555Y01918*
X05555Y01918*
X05555Y01918*
X05555Y01917*
X05555Y01917*
X05555Y01917*
X05555Y01917*
X05556Y01916*
X05556Y01916*
X05556Y01916*
X05556Y01916*
X05557Y01915*
X05557Y01915*
X05557Y01915*
X05557Y01915*
X05558Y01915*
X05558Y01915*
X05558Y01915*
X05559Y01915*
X05559Y01915*
X05559*
X0556Y01915*
X0556Y01915*
X05561Y01915*
X05561Y01915*
X05561Y01915*
X05561Y01915*
X05562Y01915*
X05562Y01915*
X05562Y01916*
X05563Y01916*
X05563Y01916*
X05563Y01916*
X05563Y01917*
X05563Y01917*
X05564Y01917*
X05564Y01917*
X05564Y01918*
X05564Y01918*
X05564Y01918*
X05564Y01919*
X05564Y01919*
X05564Y0192*
G54D13*
X07279Y02034D02*
D01*
X0728Y02034*
X07282Y02034*
X07284Y02034*
X07286Y02034*
X07287Y02035*
X07289Y02036*
X0729Y02036*
X07292Y02037*
X07293Y02038*
X07295Y02039*
X07296Y02041*
X07297Y02042*
X07298Y02043*
X07299Y02045*
X073Y02046*
X07301Y02048*
X07302Y02049*
X07302Y02051*
X07303Y02052*
X07303Y02054*
X07304Y02056*
X07304Y02058*
Y02059*
X07304Y02061*
X07303Y02063*
X07303Y02065*
X07302Y02066*
X07302Y02068*
X07301Y02069*
X073Y02071*
X07299Y02072*
X07298Y02074*
X07297Y02075*
X07296Y02076*
X07295Y02078*
X07293Y02079*
X07292Y0208*
X0729Y02081*
X07289Y02081*
X07287Y02082*
X07286Y02083*
X07284Y02083*
X07282Y02083*
X0728Y02083*
X07279Y02084*
X05523Y02045D02*
D01*
X05524Y02045*
X05526Y02045*
X05528Y02045*
X0553Y02045*
X05531Y02046*
X05533Y02047*
X05534Y02047*
X05536Y02048*
X05537Y02049*
X05539Y0205*
X0554Y02052*
X05541Y02053*
X05542Y02054*
X05543Y02056*
X05544Y02057*
X05545Y02059*
X05546Y0206*
X05546Y02062*
X05547Y02063*
X05547Y02065*
X05548Y02067*
X05548Y02069*
Y0207*
X05548Y02072*
X05547Y02074*
X05547Y02076*
X05546Y02077*
X05546Y02079*
X05545Y0208*
X05544Y02082*
X05543Y02083*
X05542Y02085*
X05541Y02086*
X0554Y02087*
X05539Y02089*
X05537Y0209*
X05536Y02091*
X05534Y02092*
X05533Y02092*
X05531Y02093*
X0553Y02094*
X05528Y02094*
X05526Y02094*
X05524Y02094*
X05523Y02095*
X05115Y05214D02*
Y05414D01*
X04665D02*
X05115D01*
X04665Y05314D02*
Y05414D01*
Y05314D02*
X04715D01*
Y05214D02*
Y05314D01*
Y05214D02*
X05115D01*
X09311Y04695D02*
X09391D01*
X09311D02*
Y04935D01*
X09391*
Y04695D02*
Y04935D01*
X09351Y04655D02*
Y04695D01*
Y04935D02*
Y04975D01*
X08054Y01954D02*
Y02163D01*
X07279Y02084D02*
Y02163D01*
Y01954D02*
Y02034D01*
Y02163D02*
X08054D01*
X07279Y01954D02*
X08054D01*
X06298Y01965D02*
Y02174D01*
X05523Y02095D02*
Y02174D01*
Y01965D02*
Y02045D01*
Y02174D02*
X06298D01*
X05523Y01965D02*
X06298D01*
G54D14*
X05379Y05395D02*
X09237D01*
X05379Y03033D02*
Y05395D01*
Y03033D02*
X09237D01*
Y05395*
X0101Y01103D02*
X01Y01113D01*
X00981*
X00971Y01103*
Y01064*
X00981Y01054*
X01*
X0101Y01064*
X0107Y01054D02*
X0103D01*
X0107Y01093*
Y01103*
X0106Y01113*
X0104*
X0103Y01103*
X00313Y00946D02*
X00303Y00956D01*
X00284*
X00274Y00946*
Y00907*
X00284Y00897*
X00303*
X00313Y00907*
X00333Y00897D02*
X00353D01*
X00343*
Y00956*
X00333Y00946*
X05384Y0549D02*
Y05431D01*
X05423*
X05483Y0548D02*
X05473Y0549D01*
X05453*
X05443Y0548*
Y05441*
X05453Y05431*
X05473*
X05483Y05441*
X05503Y0549D02*
Y05431D01*
X05533*
X05543Y05441*
Y0548*
X05533Y0549*
X05503*
X05563Y05431D02*
X05583D01*
X05573*
Y0549*
X05563Y0548*
X04671Y05448D02*
Y05507D01*
X047*
X0471Y05497*
Y05477*
X047Y05467*
X04671*
X0469D02*
X0471Y05448D01*
X0473D02*
X0475D01*
X0474*
Y05507*
X0473Y05497*
X09317Y05076D02*
Y05136D01*
X09347*
X09357Y05126*
Y05106*
X09347Y05096*
X09317*
X09337D02*
X09357Y05076D01*
X09417D02*
X09377D01*
X09417Y05116*
Y05126*
X09407Y05136*
X09387*
X09377Y05126*
X00378Y01942D02*
Y01892D01*
X00388Y01882*
X00408*
X00418Y01892*
Y01942*
X00438Y01932D02*
X00448Y01942D01*
X00468*
X00478Y01932*
Y01922*
X00468Y01912*
X00458*
X00468*
X00478Y01902*
Y01892*
X00468Y01882*
X00448*
X00438Y01892*
X07278Y0234D02*
Y02291D01*
X07288Y02281*
X07307*
X07317Y02291*
Y0234*
X07377Y02281D02*
X07337D01*
X07377Y0232*
Y0233*
X07367Y0234*
X07347*
X07337Y0233*
X05522Y02351D02*
Y02302D01*
X05532Y02292*
X05551*
X05561Y02302*
Y02351*
X05581Y02292D02*
X05601D01*
X05591*
Y02351*
X05581Y02341*
X016Y00698D02*
X01561D01*
Y00639*
X016*
X01561Y00668D02*
X0158D01*
X0166Y00688D02*
X0165Y00698D01*
X0163*
X0162Y00688*
Y00649*
X0163Y00639*
X0165*
X0166Y00649*
X0168Y00639D02*
X017D01*
X0169*
Y00698*
X0168Y00688*
G54D15*
X00396Y01223D02*
Y01548D01*
X00756*
Y01223D02*
Y01548D01*
X00396Y01223D02*
X00756D01*
M02*