%FSTAX23Y23*%
%MOIN*%
%SFA1B1*%

%IPPOS*%
%ADD9500C,0.023620*%
%ADD9501C,0.027560*%
%ADD9502C,0.030000*%
%ADD9503C,0.033460*%
%ADD9504C,0.035430*%
%ADD9505C,0.044000*%
%LN2004_lcd-plated-1*%
%LPD*%
G54D9500*
X05042Y00912D03*
X05718Y00814D03*
X05786Y01012D03*
X05878Y00681D03*
X06163Y00707D03*
X06232Y01325D03*
X06043Y01326D03*
X06313Y01461D03*
X06433Y014D03*
X06509Y01367D03*
X06562Y01301D03*
X06571Y01474D03*
X06668Y0143D03*
X06971Y01366D03*
X07065Y01302D03*
X06874Y01249D03*
X0639D03*
X06265Y00805D03*
X06312Y00642D03*
X06429Y00658D03*
X06561Y00683D03*
X0677Y00806D03*
X0737Y01009D03*
X07352Y02429D03*
X07519Y02333D03*
X0714Y02271D03*
X06474Y01585D03*
X05989D03*
X06005Y01692D03*
X05624Y01696D03*
X06161Y02426D03*
X06073Y02584D03*
X05033Y02582D03*
G54D9501*
X04815Y05314D03*
X04915D03*
X05015D03*
G54D9502*
X04006Y00849D03*
G54D9503*
X09351Y04615D03*
Y05015D03*
G54D9504*
X07867Y01909D03*
X07967D03*
Y02209D03*
X07867D03*
X07767D03*
X07667D03*
X07567D03*
X07467D03*
X07367D03*
Y01909D03*
X07467D03*
X07567D03*
X07667D03*
X07767D03*
X06211Y0192D03*
X06111D03*
X06011D03*
X05911D03*
X05811D03*
X05711D03*
X05611D03*
Y0222D03*
X05711D03*
X05811D03*
X05911D03*
X06011D03*
X06111D03*
X06211D03*
X06273Y05317D03*
X06373D03*
X06473D03*
X06573D03*
X06673D03*
X06773D03*
X06873D03*
X06973D03*
X07073D03*
X07173D03*
X07273D03*
X06173D03*
X06073D03*
X05973D03*
X05873D03*
X05773D03*
G54D9505*
X00476Y00998D03*
X00576D03*
X00676D03*
M02*