%FSTAX23Y23*%
%MOIN*%
%SFA1B1*%

%IPPOS*%
%ADD18R,0.110000X0.330000*%
%ADD19O,0.070000X0.330000*%
%ADD20R,0.070000X0.330000*%
%ADD34C,0.015000*%
%ADD35C,0.030000*%
%ADD36C,0.020000*%
%ADD37C,0.025000*%
%ADD38C,0.059060*%
%ADD39R,0.059060X0.059060*%
%ADD40R,0.047240X0.047240*%
%ADD41C,0.047240*%
%ADD42C,0.055120*%
%ADD43C,0.130000*%
%ADD44O,0.066000X0.132000*%
%ADD45R,0.059060X0.059060*%
%ADD46C,0.039370*%
%ADD47C,0.050000*%
%LN2004_lcd-1*%
%LPD*%
G36*
X05982Y00772D02*
Y00611D01*
X05981Y00611*
X05971Y00603*
X05963Y00593*
X05959Y00582*
X05957Y0057*
X05927*
X05925Y00582*
X05921Y00593*
X05913Y00603*
X05903Y00611*
X05901Y00611*
Y00659*
X05905Y00665*
X05908Y00672*
X05909Y00681*
X05908Y00689*
X05905Y00696*
X059Y00703*
X05893Y00708*
X05886Y00711*
X05878Y00712*
X05869Y00711*
X05862Y00708*
X05855Y00703*
X0585Y00696*
X05847Y00689*
X05846Y00681*
X05847Y00672*
X0585Y00665*
X05855Y00658*
X05856Y00657*
Y00611*
X05856Y00611*
X05846Y00603*
X05838Y00593*
X05834Y00582*
X05832Y0057*
X05802*
X058Y00582*
X05796Y00593*
X05788Y00603*
X05778Y00611*
X05767Y00615*
X05755Y00617*
X05751Y00616*
X05693Y00674*
Y00786*
X05698Y00788*
X05702Y00786*
X05709Y00783*
X05718Y00782*
X05726Y00783*
X05733Y00786*
X0574Y00791*
X0574Y00791*
X05963*
X05982Y00772*
G37*
G36*
X00254Y05569D02*
X0975D01*
Y05568*
X1Y05318*
Y0057*
X0784*
Y00615*
X0778*
Y0044*
X0777*
Y00615*
X0771*
Y0057*
X07677*
X07675Y00582*
X07671Y00593*
X07663Y00603*
X07653Y00611*
X07642Y00615*
X0763Y00617*
X07617Y00615*
X07606Y00611*
X07596Y00603*
X07588Y00593*
X07584Y00582*
X07582Y0057*
X07552*
X0755Y00582*
X07546Y00593*
X07538Y00603*
X07528Y00611*
X07517Y00615*
X07505Y00617*
X07492Y00615*
X07481Y00611*
X07471Y00603*
X07463Y00593*
X07459Y00582*
X07457Y0057*
X07427*
X07425Y00582*
X07421Y00593*
X07413Y00603*
X07403Y00611*
X07392Y00615*
X0738Y00617*
X07367Y00615*
X07356Y00611*
X07346Y00603*
X07338Y00593*
X07334Y00582*
X07332Y0057*
X07302*
X073Y00582*
X07296Y00593*
X07288Y00603*
X07278Y00611*
X07267Y00615*
X07255Y00617*
X07242Y00615*
X07231Y00611*
X07221Y00603*
X07213Y00593*
X07209Y00582*
X07207Y0057*
X07177*
X07175Y00582*
X07171Y00593*
X07163Y00603*
X07153Y00611*
X07142Y00615*
X0713Y00617*
X07117Y00615*
X07106Y00611*
X07096Y00603*
X07088Y00593*
X07084Y00582*
X07082Y0057*
X07052*
X0705Y00582*
X07046Y00593*
X07038Y00603*
X07028Y00611*
X07017Y00615*
X07005Y00617*
X06992Y00615*
X06981Y00611*
X06971Y00603*
X06963Y00593*
X06959Y00582*
X06957Y0057*
X06927*
X06925Y00582*
X06921Y00593*
X06913Y00603*
X06903Y00611*
X06892Y00615*
X0688Y00617*
X06867Y00615*
X06856Y00611*
X06846Y00603*
X06838Y00593*
X06834Y00582*
X06832Y0057*
X06802*
X068Y00582*
X06796Y00593*
X06788Y00603*
X06778Y00611*
X06767Y00615*
X06755Y00617*
X06742Y00615*
X06731Y00611*
X06721Y00603*
X06713Y00593*
X06709Y00582*
X06707Y0057*
X06677*
X06675Y00582*
X06671Y00593*
X06663Y00603*
X06653Y00611*
X06642Y00615*
X0663Y00617*
X06617Y00615*
X06606Y00611*
X06596Y00603*
X06588Y00593*
X06584Y00582*
X06582Y0057*
X06552*
Y00646*
X06557Y00651*
X06561Y00651*
X06569Y00652*
X06576Y00655*
X06583Y0066*
X06588Y00667*
X06591Y00674*
X06592Y00683*
X06591Y00691*
X06588Y00698*
X06583Y00705*
X06576Y0071*
X06569Y00713*
X06561Y00714*
X06552Y00713*
X06545Y0071*
X06538Y00705*
X06533Y00698*
X0653Y00691*
X06529Y00683*
X06529Y00679*
X06518Y00668*
X06514Y00662*
X06512Y00654*
Y00617*
X06458*
Y0057*
X06427*
X06425Y00582*
X06424Y00586*
X06443Y00604*
X06447Y00611*
X06448Y00619*
Y00633*
X06451Y00635*
X06456Y00642*
X06459Y00649*
X0646Y00658*
X06459Y00666*
X06456Y00673*
X06451Y0068*
X06444Y00685*
X06437Y00688*
X06429Y00689*
X0642Y00688*
X06413Y00685*
X06406Y0068*
X06401Y00673*
X06398Y00666*
X06397Y00658*
X06398Y00649*
X06401Y00642*
X06406Y00635*
X06409Y00633*
Y00627*
X06396Y00614*
X06392Y00615*
X0638Y00617*
X06367Y00615*
X06356Y00611*
X06346Y00603*
X06338Y00593*
X06334Y00582*
X06332Y0057*
X06302*
X063Y00582*
X06299Y00586*
X06326Y00612*
X06326Y00613*
X06327Y00614*
X06334Y00619*
X06339Y00626*
X06342Y00633*
X06343Y00642*
X06342Y0065*
X06339Y00657*
X06334Y00664*
X06327Y00669*
X0632Y00672*
X06312Y00673*
X06303Y00672*
X06296Y00669*
X06289Y00664*
X06284Y00657*
X06281Y0065*
X0628Y00642*
X06281Y00633*
X06283Y00627*
X06271Y00614*
X06267Y00615*
X06255Y00617*
X06242Y00615*
X06231Y00611*
X06221Y00603*
X06213Y00593*
X06209Y00582*
X06207Y0057*
X06177*
X06175Y00582*
X06171Y00593*
X06163Y00603*
X06153Y00611*
X06149Y00612*
Y00665*
X06159Y00675*
X06163Y00675*
X06171Y00676*
X06178Y00679*
X06185Y00684*
X0619Y00691*
X06193Y00698*
X06194Y00707*
X06193Y00715*
X0619Y00722*
X06185Y00729*
X06178Y00734*
X06171Y00737*
X06163Y00738*
X06154Y00737*
X06147Y00734*
X0614Y00729*
X06135Y00722*
X06132Y00715*
X06131Y00707*
X06131Y00703*
X06115Y00688*
X06111Y00681*
X0611Y00674*
Y00612*
X06106Y00611*
X06096Y00603*
X06088Y00593*
X06084Y00582*
X06082Y0057*
X06052*
X0605Y00582*
X06046Y00593*
X06038Y00603*
X06028Y00611*
X06027Y00611*
Y00782*
X06025Y0079*
X0602Y00797*
X05988Y00829*
X05981Y00834*
X05973Y00836*
X0574*
X0574Y00836*
X05733Y00841*
X05726Y00844*
X05718Y00845*
X05709Y00844*
X05702Y00841*
X05698Y00839*
X05693Y00841*
Y00876*
X05692Y00883*
X05688Y0089*
X05652Y00926*
X05645Y0093*
X05638Y00931*
X05066*
X05064Y00934*
X05057Y00939*
X0505Y00942*
X05042Y00943*
X05033Y00942*
X05026Y00939*
X05019Y00934*
X05014Y00927*
X05011Y0092*
X0501Y00912*
X05011Y00903*
X05014Y00896*
X05019Y00889*
X05026Y00884*
X05033Y00881*
X05042Y0088*
X0505Y00881*
X05057Y00884*
X05064Y00889*
X05066Y00892*
X05629*
X05654Y00867*
Y00666*
X05655Y00658*
X05659Y00651*
X05715Y00596*
X05713Y00593*
X05709Y00582*
X05707Y0057*
X05677*
X05675Y00582*
X05671Y00593*
X05663Y00603*
X05653Y00611*
X05642Y00615*
X0563Y00617*
X05617Y00615*
X05606Y00611*
X05596Y00603*
X05588Y00593*
X05584Y00582*
X05582Y0057*
X05552*
X0555Y00582*
X05546Y00593*
X05538Y00603*
X05528Y00611*
X05517Y00615*
X05505Y00617*
X05492Y00615*
X05481Y00611*
X05471Y00603*
X05463Y00593*
X05459Y00582*
X05457Y0057*
X05427*
X05425Y00582*
X05421Y00593*
X05413Y00603*
X05403Y00611*
X05392Y00615*
X0538Y00617*
X05367Y00615*
X05356Y00611*
X05346Y00603*
X05338Y00593*
X05334Y00582*
X05332Y0057*
X05302*
Y00617*
X05208*
Y0057*
X05177*
X05175Y00582*
X05171Y00593*
X05163Y00603*
X05153Y00611*
X05142Y00615*
X0513Y00617*
X05117Y00615*
X05106Y00611*
X05096Y00603*
X05088Y00593*
X05084Y00582*
X05082Y0057*
X05052*
X0505Y00582*
X05046Y00593*
X05038Y00603*
X05028Y00611*
X05017Y00615*
X05005Y00617*
X04992Y00615*
X04981Y00611*
X04971Y00603*
X04963Y00593*
X04959Y00582*
X04957Y0057*
X04927*
X04925Y00582*
X04921Y00593*
X04913Y00603*
X04903Y00611*
X04892Y00615*
X0488Y00617*
X04867Y00615*
X04856Y00611*
X04846Y00603*
X04838Y00593*
X04834Y00582*
X04832Y0057*
X04802*
X048Y00582*
X04796Y00593*
X04788Y00603*
X04778Y00611*
X04767Y00615*
X04755Y00617*
X04742Y00615*
X04731Y00611*
X04721Y00603*
X04713Y00593*
X04709Y00582*
X04707Y0057*
X04677*
X04675Y00582*
X04671Y00593*
X04663Y00603*
X04653Y00611*
X04642Y00615*
X0463Y00617*
X04617Y00615*
X04606Y00611*
X04596Y00603*
X04588Y00593*
X04584Y00582*
X04582Y0057*
X04552*
X0455Y00582*
X04546Y00593*
X04538Y00603*
X04528Y00611*
X04517Y00615*
X04505Y00617*
X04492Y00615*
X04481Y00611*
X04471Y00603*
X04463Y00593*
X04459Y00582*
X04457Y0057*
X04427*
X04425Y00582*
X04421Y00593*
X04413Y00603*
X04403Y00611*
X04392Y00615*
X0438Y00617*
X04367Y00615*
X04356Y00611*
X04346Y00603*
X04338Y00593*
X04334Y00582*
X04332Y0057*
X04302*
X043Y00582*
X04296Y00593*
X04288Y00603*
X04278Y00611*
X04267Y00615*
X04255Y00617*
X04242Y00615*
X04231Y00611*
X04221Y00603*
X04213Y00593*
X04209Y00582*
X04207Y0057*
X04177*
X04175Y00582*
X04171Y00593*
X04163Y00603*
X04153Y00611*
X04142Y00615*
X0413Y00617*
X04117Y00615*
X04106Y00611*
X04096Y00603*
X04088Y00593*
X04084Y00582*
X04082Y0057*
X0405*
Y00615*
X04032*
Y00826*
X04036Y00831*
X0404Y00839*
X0404Y00844*
X03971*
X03971Y00839*
X03975Y00831*
X03978Y00827*
Y00615*
X0396*
Y0057*
X03927*
X03925Y00582*
X03921Y00593*
X03913Y00603*
X03903Y00611*
X03892Y00615*
X0388Y00617*
X03867Y00615*
X03856Y00611*
X03846Y00603*
X03838Y00593*
X03834Y00582*
X03832Y0057*
X03802*
X038Y00582*
X03796Y00593*
X03788Y00603*
X03778Y00611*
X03767Y00615*
X03755Y00617*
X03742Y00615*
X03731Y00611*
X03721Y00603*
X03713Y00593*
X03709Y00582*
X03707Y0057*
X03677*
X03675Y00582*
X03671Y00593*
X03663Y00603*
X03653Y00611*
X03642Y00615*
X0363Y00617*
X03617Y00615*
X03606Y00611*
X03596Y00603*
X03588Y00593*
X03584Y00582*
X03582Y0057*
X03552*
X0355Y00582*
X03546Y00593*
X03538Y00603*
X03528Y00611*
X03517Y00615*
X03505Y00617*
X03492Y00615*
X03481Y00611*
X03471Y00603*
X03463Y00593*
X03459Y00582*
X03457Y0057*
X03427*
X03425Y00582*
X03421Y00593*
X03413Y00603*
X03403Y00611*
X03392Y00615*
X0338Y00617*
X03367Y00615*
X03356Y00611*
X03346Y00603*
X03338Y00593*
X03334Y00582*
X03332Y0057*
X03302*
X033Y00582*
X03296Y00593*
X03288Y00603*
X03278Y00611*
X03267Y00615*
X03255Y00617*
X03242Y00615*
X03231Y00611*
X03221Y00603*
X03213Y00593*
X03209Y00582*
X03207Y0057*
X03177*
X03175Y00582*
X03171Y00593*
X03163Y00603*
X03153Y00611*
X03142Y00615*
X0313Y00617*
X03117Y00615*
X03106Y00611*
X03096Y00603*
X03088Y00593*
X03084Y00582*
X03082Y0057*
X03052*
X0305Y00582*
X03046Y00593*
X03038Y00603*
X03028Y00611*
X03017Y00615*
X03005Y00617*
X02992Y00615*
X02981Y00611*
X02971Y00603*
X02963Y00593*
X02959Y00582*
X02957Y0057*
X02927*
X02925Y00582*
X02921Y00593*
X02913Y00603*
X02903Y00611*
X02892Y00615*
X0288Y00617*
X02867Y00615*
X02856Y00611*
X02846Y00603*
X02838Y00593*
X02834Y00582*
X02832Y0057*
X02802*
Y00617*
X02708*
Y0057*
X02677*
X02675Y00582*
X02671Y00593*
X02663Y00603*
X02653Y00611*
X02642Y00615*
X0263Y00617*
X02617Y00615*
X02606Y00611*
X02596Y00603*
X02588Y00593*
X02584Y00582*
X02582Y0057*
X02552*
X0255Y00582*
X02546Y00593*
X02538Y00603*
X02528Y00611*
X02517Y00615*
X02505Y00617*
X02492Y00615*
X02481Y00611*
X02471Y00603*
X02463Y00593*
X02459Y00582*
X02457Y0057*
X02427*
X02425Y00582*
X02421Y00593*
X02413Y00603*
X02403Y00611*
X02392Y00615*
X0238Y00617*
X02367Y00615*
X02356Y00611*
X02346Y00603*
X02338Y00593*
X02334Y00582*
X02332Y0057*
X02302*
X023Y00582*
X02296Y00593*
X02288Y00603*
X02278Y00611*
X02267Y00615*
X02255Y00617*
X02242Y00615*
X02231Y00611*
X02221Y00603*
X02213Y00593*
X02209Y00582*
X02207Y0057*
X02177*
X02175Y00582*
X02171Y00593*
X02163Y00603*
X02153Y00611*
X02142Y00615*
X0213Y00617*
X02117Y00615*
X02106Y00611*
X02096Y00603*
X02088Y00593*
X02084Y00582*
X02082Y0057*
X02052*
X0205Y00582*
X02046Y00593*
X02038Y00603*
X02028Y00611*
X02017Y00615*
X02005Y00617*
X01992Y00615*
X01981Y00611*
X01971Y00603*
X01963Y00593*
X01959Y00582*
X01957Y0057*
X01927*
X01925Y00582*
X01921Y00593*
X01913Y00603*
X01903Y00611*
X01892Y00615*
X0188Y00617*
X01867Y00615*
X01856Y00611*
X01846Y00603*
X01838Y00593*
X01834Y00582*
X01832Y0057*
X01802*
X018Y00582*
X01796Y00593*
X01788Y00603*
X01778Y00611*
X01767Y00615*
X01755Y00617*
X01742Y00615*
X01731Y00611*
X01721Y00603*
X01713Y00593*
X01709Y00582*
X01707Y0057*
X01677*
Y00617*
X01634*
Y00783*
X01633Y00792*
X01627Y008*
X01574Y00853*
X01566Y00859*
X01557Y0086*
X00563*
X00502Y00922*
X00502Y00928*
X00508Y00932*
X00515Y00942*
X00519Y00953*
X00521Y00965*
Y01031*
X00519Y01042*
X00515Y01053*
X00508Y01063*
X00498Y0107*
X00487Y01074*
X00476Y01076*
X00464Y01074*
X00453Y0107*
X00443Y01063*
X00436Y01053*
X00432Y01042*
X0043Y01031*
Y00965*
X00432Y00953*
X00436Y00942*
X00443Y00932*
X00449Y00928*
Y00915*
X0045Y00905*
X00456Y00897*
X00535Y00818*
X00543Y00812*
X00553Y00811*
X01546*
X01585Y00772*
Y00617*
X01543*
Y0057*
X00001*
X0Y00571*
Y0532*
X00001*
X00252Y05571*
X00254Y05569*
G37*
%LN2004_lcd-2*%
%LPC*%
G36*
X07278Y05356D02*
Y05322D01*
X07312*
X07311Y05327*
X07307Y05336*
X07301Y05345*
X07292Y05351*
X07283Y05355*
X07278Y05356*
G37*
G36*
X07268D02*
X07262Y05355D01*
X07253Y05351*
X07244Y05345*
X07238Y05336*
X07234Y05327*
X07233Y05322*
X07268*
Y05356*
G37*
G36*
X06178D02*
Y05322D01*
X06212*
X06211Y05327*
X06207Y05336*
X06201Y05345*
X06192Y05351*
X06183Y05355*
X06178Y05356*
G37*
G36*
X06168D02*
X06162Y05355D01*
X06153Y05351*
X06144Y05345*
X06138Y05336*
X06134Y05327*
X06133Y05322*
X06168*
Y05356*
G37*
G36*
X05878D02*
Y05322D01*
X05912*
X05911Y05327*
X05907Y05336*
X05901Y05345*
X05892Y05351*
X05883Y05355*
X05878Y05356*
G37*
G36*
X05868D02*
X05862Y05355D01*
X05853Y05351*
X05844Y05345*
X05838Y05336*
X05834Y05327*
X05833Y05322*
X05868*
Y05356*
G37*
G36*
X05048Y05347D02*
X0502D01*
Y05319*
X05048*
Y05347*
G37*
G36*
X0501D02*
X04981D01*
Y05319*
X0501*
Y05347*
G37*
G36*
X05048Y05309D02*
X0502D01*
Y0528*
X05048*
Y05309*
G37*
G36*
X0501D02*
X04981D01*
Y0528*
X0501*
Y05309*
G37*
G36*
X04815Y05349D02*
X04805Y05348D01*
X04797Y05345*
X04789Y05339*
X04783Y05331*
X0478Y05323*
X04779Y05314*
X0478Y05304*
X04783Y05296*
X04789Y05288*
X04797Y05282*
X04805Y05279*
X04815Y05278*
X04824Y05279*
X04832Y05282*
X0484Y05288*
X04846Y05296*
X04849Y05304*
X0485Y05314*
X04849Y05323*
X04846Y05331*
X0484Y05339*
X04832Y05345*
X04824Y05348*
X04815Y05349*
G37*
G36*
X07312Y05312D02*
X07278D01*
Y05277*
X07283Y05278*
X07292Y05282*
X07301Y05288*
X07307Y05297*
X07311Y05306*
X07312Y05312*
G37*
G36*
X07268D02*
X07233D01*
X07234Y05306*
X07238Y05297*
X07244Y05288*
X07253Y05282*
X07262Y05278*
X07268Y05277*
Y05312*
G37*
G36*
X06212D02*
X06178D01*
Y05277*
X06183Y05278*
X06192Y05282*
X06201Y05288*
X06207Y05297*
X06211Y05306*
X06212Y05312*
G37*
G36*
X06168D02*
X06133D01*
X06134Y05306*
X06138Y05297*
X06144Y05288*
X06153Y05282*
X06162Y05278*
X06168Y05277*
Y05312*
G37*
G36*
X05912D02*
X05878D01*
Y05277*
X05883Y05278*
X05892Y05282*
X05901Y05288*
X05907Y05297*
X05911Y05306*
X05912Y05312*
G37*
G36*
X05868D02*
X05833D01*
X05834Y05306*
X05838Y05297*
X05844Y05288*
X05853Y05282*
X05862Y05278*
X05868Y05277*
Y05312*
G37*
G36*
X05814Y05358D02*
X05731D01*
Y05275*
X05814*
Y05358*
G37*
G36*
X07073Y05358D02*
X07062Y05357D01*
X07052Y05353*
X07043Y05346*
X07036Y05337*
X07032Y05327*
X07031Y05317*
X07032Y05306*
X07036Y05296*
X07043Y05287*
X07052Y0528*
X07062Y05276*
X07073Y05275*
X07083Y05276*
X07093Y0528*
X07102Y05287*
X07109Y05296*
X07113Y05306*
X07114Y05317*
X07113Y05327*
X07109Y05337*
X07102Y05346*
X07093Y05353*
X07083Y05357*
X07073Y05358*
G37*
G36*
X06973D02*
X06962Y05357D01*
X06952Y05353*
X06943Y05346*
X06936Y05337*
X06932Y05327*
X06931Y05317*
X06932Y05306*
X06936Y05296*
X06943Y05287*
X06952Y0528*
X06962Y05276*
X06973Y05275*
X06983Y05276*
X06993Y0528*
X07002Y05287*
X07009Y05296*
X07013Y05306*
X07014Y05317*
X07013Y05327*
X07009Y05337*
X07002Y05346*
X06993Y05353*
X06983Y05357*
X06973Y05358*
G37*
G36*
X06873D02*
X06862Y05357D01*
X06852Y05353*
X06843Y05346*
X06836Y05337*
X06832Y05327*
X06831Y05317*
X06832Y05306*
X06836Y05296*
X06843Y05287*
X06852Y0528*
X06862Y05276*
X06873Y05275*
X06883Y05276*
X06893Y0528*
X06902Y05287*
X06909Y05296*
X06913Y05306*
X06914Y05317*
X06913Y05327*
X06909Y05337*
X06902Y05346*
X06893Y05353*
X06883Y05357*
X06873Y05358*
G37*
G36*
X06773D02*
X06762Y05357D01*
X06752Y05353*
X06743Y05346*
X06736Y05337*
X06732Y05327*
X06731Y05317*
X06732Y05306*
X06736Y05296*
X06743Y05287*
X06752Y0528*
X06762Y05276*
X06773Y05275*
X06783Y05276*
X06793Y0528*
X06802Y05287*
X06809Y05296*
X06813Y05306*
X06814Y05317*
X06813Y05327*
X06809Y05337*
X06802Y05346*
X06793Y05353*
X06783Y05357*
X06773Y05358*
G37*
G36*
X06673D02*
X06662Y05357D01*
X06652Y05353*
X06643Y05346*
X06636Y05337*
X06632Y05327*
X06631Y05317*
X06632Y05306*
X06636Y05296*
X06643Y05287*
X06652Y0528*
X06662Y05276*
X06673Y05275*
X06683Y05276*
X06693Y0528*
X06702Y05287*
X06709Y05296*
X06713Y05306*
X06714Y05317*
X06713Y05327*
X06709Y05337*
X06702Y05346*
X06693Y05353*
X06683Y05357*
X06673Y05358*
G37*
G36*
X06573D02*
X06562Y05357D01*
X06552Y05353*
X06543Y05346*
X06536Y05337*
X06532Y05327*
X06531Y05317*
X06532Y05306*
X06536Y05296*
X06543Y05287*
X06552Y0528*
X06562Y05276*
X06573Y05275*
X06583Y05276*
X06593Y0528*
X06602Y05287*
X06609Y05296*
X06613Y05306*
X06614Y05317*
X06613Y05327*
X06609Y05337*
X06602Y05346*
X06593Y05353*
X06583Y05357*
X06573Y05358*
G37*
G36*
X06473D02*
X06462Y05357D01*
X06452Y05353*
X06443Y05346*
X06436Y05337*
X06432Y05327*
X06431Y05317*
X06432Y05306*
X06436Y05296*
X06443Y05287*
X06452Y0528*
X06462Y05276*
X06473Y05275*
X06483Y05276*
X06493Y0528*
X06502Y05287*
X06509Y05296*
X06513Y05306*
X06514Y05317*
X06513Y05327*
X06509Y05337*
X06502Y05346*
X06493Y05353*
X06483Y05357*
X06473Y05358*
G37*
G36*
X06373D02*
X06362Y05357D01*
X06352Y05353*
X06343Y05346*
X06336Y05337*
X06332Y05327*
X06331Y05317*
X06332Y05306*
X06336Y05296*
X06343Y05287*
X06352Y0528*
X06362Y05276*
X06373Y05275*
X06383Y05276*
X06393Y0528*
X06402Y05287*
X06409Y05296*
X06413Y05306*
X06414Y05317*
X06413Y05327*
X06409Y05337*
X06402Y05346*
X06393Y05353*
X06383Y05357*
X06373Y05358*
G37*
G36*
X06273D02*
X06262Y05357D01*
X06252Y05353*
X06243Y05346*
X06236Y05337*
X06232Y05327*
X06231Y05317*
X06232Y05306*
X06236Y05296*
X06243Y05287*
X06252Y0528*
X06262Y05276*
X06273Y05275*
X06283Y05276*
X06293Y0528*
X06302Y05287*
X06309Y05296*
X06313Y05306*
X06314Y05317*
X06313Y05327*
X06309Y05337*
X06302Y05346*
X06293Y05353*
X06283Y05357*
X06273Y05358*
G37*
G36*
X06073D02*
X06062Y05357D01*
X06052Y05353*
X06043Y05346*
X06036Y05337*
X06032Y05327*
X06031Y05317*
X06032Y05306*
X06036Y05296*
X06043Y05287*
X06052Y0528*
X06062Y05276*
X06073Y05275*
X06083Y05276*
X06093Y0528*
X06102Y05287*
X06109Y05296*
X06113Y05306*
X06114Y05317*
X06113Y05327*
X06109Y05337*
X06102Y05346*
X06093Y05353*
X06083Y05357*
X06073Y05358*
G37*
G36*
X05929Y055D02*
X04977D01*
X04969Y05499*
X04962Y05495*
X049Y05433*
X04896Y05426*
X04895Y05419*
Y05343*
X04889Y05339*
X04883Y05331*
X0488Y05323*
X04879Y05314*
X0488Y05304*
X04883Y05296*
X04889Y05288*
X04897Y05282*
X04905Y05279*
X04915Y05278*
X04924Y05279*
X04932Y05282*
X0494Y05288*
X04946Y05296*
X04949Y05304*
X0495Y05314*
X04949Y05323*
X04946Y05331*
X0494Y05339*
X04934Y05343*
Y0541*
X04985Y05461*
X0592*
X05953Y05428*
Y05353*
X05952Y05353*
X05943Y05346*
X05936Y05337*
X05932Y05327*
X05931Y05317*
X05932Y05306*
X05936Y05296*
X05943Y05287*
X05952Y0528*
X05962Y05276*
X05973Y05275*
X05983Y05276*
X05993Y0528*
X06002Y05287*
X06009Y05296*
X06013Y05306*
X06014Y05317*
X06013Y05327*
X06009Y05337*
X06002Y05346*
X05993Y05353*
X05992Y05353*
Y05437*
X05991Y05444*
X05987Y05451*
X05943Y05495*
X05936Y05499*
X05929Y055*
G37*
G36*
X07173Y05358D02*
X07162Y05357D01*
X07152Y05353*
X07143Y05346*
X07136Y05337*
X07132Y05327*
X07131Y05317*
X07132Y05306*
X07136Y05296*
X07143Y05287*
X07148Y05283*
Y05102*
X07149Y05092*
X07155Y05084*
X07242Y04997*
X0725Y04991*
X0726Y0499*
X0932*
X09322Y04986*
X09331Y0498*
X0934Y04976*
X09351Y04975*
X09361Y04976*
X0937Y0498*
X09379Y04986*
X09385Y04995*
X09389Y05004*
X0939Y05015*
X09389Y05025*
X09385Y05034*
X09379Y05043*
X0937Y05049*
X09361Y05053*
X09351Y05054*
X0934Y05053*
X09331Y05049*
X09322Y05043*
X0932Y05039*
X0727*
X07197Y05112*
Y05283*
X07202Y05287*
X07209Y05296*
X07213Y05306*
X07214Y05317*
X07213Y05327*
X07209Y05337*
X07202Y05346*
X07193Y05353*
X07183Y05357*
X07173Y05358*
G37*
G36*
X09351Y04654D02*
X0934Y04653D01*
X09331Y04649*
X09322Y04643*
X09316Y04634*
X09312Y04625*
X09311Y04615*
X09312Y04604*
X09316Y04595*
X09322Y04586*
X09331Y0458*
X0934Y04576*
X09351Y04575*
X09361Y04576*
X0937Y0458*
X09379Y04586*
X09385Y04595*
X09389Y04604*
X0939Y04615*
X09389Y04625*
X09385Y04634*
X09379Y04643*
X0937Y04649*
X09361Y04653*
X09351Y04654*
G37*
G36*
X06073Y02615D02*
X06064Y02614D01*
X06057Y02611*
X0605Y02606*
X06048Y02603*
X05056*
X05055Y02604*
X05048Y02609*
X05041Y02612*
X05033Y02613*
X05024Y02612*
X05017Y02609*
X0501Y02604*
X05005Y02597*
X05002Y0259*
X05001Y02582*
X05002Y02573*
X05005Y02566*
X0501Y02559*
X05017Y02554*
X05024Y02551*
X05033Y0255*
X05041Y02551*
X05048Y02554*
X05055Y02559*
X05059Y02564*
X06048*
X0605Y02561*
X06057Y02556*
X06064Y02553*
X06073Y02552*
X06081Y02553*
X06088Y02556*
X06095Y02561*
X061Y02568*
X06103Y02575*
X06104Y02584*
X06103Y02592*
X061Y02599*
X06095Y02606*
X06088Y02611*
X06081Y02614*
X06073Y02615*
G37*
G36*
X07352Y0246D02*
X07343Y02459D01*
X07336Y02456*
X07329Y02451*
X07326Y02447*
X06184*
X06183Y02448*
X06176Y02453*
X06169Y02456*
X06161Y02457*
X06152Y02456*
X06145Y02453*
X06138Y02448*
X06133Y02441*
X0613Y02434*
X06129Y02426*
X0613Y02417*
X06133Y0241*
X06138Y02403*
X06145Y02398*
X06152Y02395*
X06161Y02394*
X06169Y02395*
X06176Y02398*
X06183Y02403*
X06186Y02407*
X07328*
X07329Y02406*
X07336Y02401*
X07343Y02398*
X07352Y02397*
X0736Y02398*
X07367Y02401*
X07374Y02406*
X07379Y02413*
X07382Y0242*
X07383Y02429*
X07382Y02437*
X07379Y02444*
X07374Y02451*
X07367Y02456*
X0736Y02459*
X07352Y0246*
G37*
G36*
X07519Y02364D02*
X0751Y02363D01*
X07503Y0236*
X07496Y02355*
X07494Y02352*
X05749*
X05741Y02351*
X05734Y02347*
X05696Y02309*
X05692Y02302*
X05691Y02295*
Y02256*
X0569Y02256*
X05681Y02249*
X05674Y0224*
X0567Y0223*
X05669Y0222*
X0567Y02209*
X05674Y02199*
X05681Y0219*
X0569Y02183*
X057Y02179*
X05711Y02178*
X05721Y02179*
X05731Y02183*
X0574Y0219*
X05747Y02199*
X05751Y02209*
X05752Y0222*
X05751Y0223*
X05747Y0224*
X0574Y02249*
X05731Y02256*
X0573Y02256*
Y02286*
X05757Y02313*
X05825*
X05826Y02308*
X05822Y02307*
X05815Y02303*
X05798Y02286*
X05794Y02279*
X05793Y02272*
Y02257*
X0579Y02256*
X05781Y02249*
X05774Y0224*
X0577Y0223*
X05769Y0222*
X0577Y02209*
X05774Y02199*
X05781Y0219*
X0579Y02183*
X058Y02179*
X05811Y02178*
X05821Y02179*
X05831Y02183*
X0584Y0219*
X05847Y02199*
X05851Y02209*
X05852Y0222*
X05851Y0223*
X05847Y0224*
X0584Y02249*
X05832Y02255*
Y02263*
X05838Y02269*
X07108*
X07109Y02262*
X07112Y02255*
X07117Y02248*
X07124Y02243*
X07131Y0224*
X0714Y02239*
X07148Y0224*
X07155Y02243*
X07162Y02248*
X07167Y02255*
X0717Y02262*
X07171Y02271*
X0717Y02279*
X07167Y02286*
X07162Y02293*
X07155Y02298*
X07148Y02301*
X0714Y02302*
X07136Y02302*
X07136Y02303*
X07129Y02307*
X07125Y02308*
X07126Y02313*
X07494*
X07496Y0231*
X07503Y02305*
X0751Y02302*
X07519Y02301*
X07527Y02302*
X07534Y02305*
X07541Y0231*
X07546Y02317*
X07549Y02324*
X0755Y02333*
X07549Y02341*
X07546Y02348*
X07541Y02355*
X07534Y0236*
X07527Y02363*
X07519Y02364*
G37*
G36*
X06111Y02261D02*
X061Y0226D01*
X0609Y02256*
X06081Y02249*
X06074Y0224*
X0607Y0223*
X06069Y0222*
X0607Y02209*
X06074Y02199*
X06081Y0219*
X0609Y02183*
X061Y02179*
X06111Y02178*
X06121Y02179*
X06131Y02183*
X0614Y0219*
X06147Y02199*
X06151Y02209*
X06152Y0222*
X06151Y0223*
X06147Y0224*
X0614Y02249*
X06131Y02256*
X06121Y0226*
X06111Y02261*
G37*
G36*
X06011D02*
X06Y0226D01*
X0599Y02256*
X05981Y02249*
X05974Y0224*
X0597Y0223*
X05969Y0222*
X0597Y02209*
X05974Y02199*
X05981Y0219*
X0599Y02183*
X06Y02179*
X06011Y02178*
X06021Y02179*
X06031Y02183*
X0604Y0219*
X06047Y02199*
X06051Y02209*
X06052Y0222*
X06051Y0223*
X06047Y0224*
X0604Y02249*
X06031Y02256*
X06021Y0226*
X06011Y02261*
G37*
G36*
X05911D02*
X059Y0226D01*
X0589Y02256*
X05881Y02249*
X05874Y0224*
X0587Y0223*
X05869Y0222*
X0587Y02209*
X05874Y02199*
X05881Y0219*
X0589Y02183*
X059Y02179*
X05911Y02178*
X05921Y02179*
X05931Y02183*
X0594Y0219*
X05947Y02199*
X05951Y02209*
X05952Y0222*
X05951Y0223*
X05947Y0224*
X0594Y02249*
X05931Y02256*
X05921Y0226*
X05911Y02261*
G37*
G36*
X05611D02*
X056Y0226D01*
X0559Y02256*
X05581Y02249*
X05574Y0224*
X0557Y0223*
X05569Y0222*
X0557Y02209*
X05574Y02199*
X05581Y0219*
X0559Y02183*
X056Y02179*
X05611Y02178*
X05621Y02179*
X05631Y02183*
X0564Y0219*
X05647Y02199*
X05651Y02209*
X05652Y0222*
X05651Y0223*
X05647Y0224*
X0564Y02249*
X05631Y02256*
X05621Y0226*
X05611Y02261*
G37*
G36*
X07967Y0225D02*
X07956Y02249D01*
X07946Y02245*
X07937Y02238*
X0793Y02229*
X07926Y02219*
X07925Y02209*
X07926Y02198*
X0793Y02188*
X07937Y02179*
X07946Y02172*
X07956Y02168*
X07967Y02167*
X07977Y02168*
X07987Y02172*
X07996Y02179*
X08003Y02188*
X08007Y02198*
X08008Y02209*
X08007Y02219*
X08003Y02229*
X07996Y02238*
X07987Y02245*
X07977Y02249*
X07967Y0225*
G37*
G36*
X07867D02*
X07856Y02249D01*
X07846Y02245*
X07837Y02238*
X0783Y02229*
X07826Y02219*
X07825Y02209*
X07826Y02198*
X0783Y02188*
X07837Y02179*
X07846Y02172*
X07856Y02168*
X07867Y02167*
X07877Y02168*
X07887Y02172*
X07896Y02179*
X07903Y02188*
X07907Y02198*
X07908Y02209*
X07907Y02219*
X07903Y02229*
X07896Y02238*
X07887Y02245*
X07877Y02249*
X07867Y0225*
G37*
G36*
X07767D02*
X07756Y02249D01*
X07746Y02245*
X07737Y02238*
X0773Y02229*
X07726Y02219*
X07725Y02209*
X07726Y02198*
X0773Y02188*
X07737Y02179*
X07746Y02172*
X07756Y02168*
X07767Y02167*
X07777Y02168*
X07787Y02172*
X07796Y02179*
X07803Y02188*
X07807Y02198*
X07808Y02209*
X07807Y02219*
X07803Y02229*
X07796Y02238*
X07787Y02245*
X07777Y02249*
X07767Y0225*
G37*
G36*
X07667D02*
X07656Y02249D01*
X07646Y02245*
X07637Y02238*
X0763Y02229*
X07626Y02219*
X07625Y02209*
X07626Y02198*
X0763Y02188*
X07637Y02179*
X07646Y02172*
X07656Y02168*
X07667Y02167*
X07677Y02168*
X07687Y02172*
X07696Y02179*
X07703Y02188*
X07707Y02198*
X07708Y02209*
X07707Y02219*
X07703Y02229*
X07696Y02238*
X07687Y02245*
X07677Y02249*
X07667Y0225*
G37*
G36*
X07567D02*
X07556Y02249D01*
X07546Y02245*
X07537Y02238*
X0753Y02229*
X07526Y02219*
X07525Y02209*
X07526Y02198*
X0753Y02188*
X07537Y02179*
X07546Y02172*
X07556Y02168*
X07567Y02167*
X07577Y02168*
X07587Y02172*
X07596Y02179*
X07603Y02188*
X07607Y02198*
X07608Y02209*
X07607Y02219*
X07603Y02229*
X07596Y02238*
X07587Y02245*
X07577Y02249*
X07567Y0225*
G37*
G36*
X07467D02*
X07456Y02249D01*
X07446Y02245*
X07437Y02238*
X0743Y02229*
X07426Y02219*
X07425Y02209*
X07426Y02198*
X0743Y02188*
X07437Y02179*
X07446Y02172*
X07456Y02168*
X07467Y02167*
X07477Y02168*
X07487Y02172*
X07496Y02179*
X07503Y02188*
X07507Y02198*
X07508Y02209*
X07507Y02219*
X07503Y02229*
X07496Y02238*
X07487Y02245*
X07477Y02249*
X07467Y0225*
G37*
G36*
X07367D02*
X07356Y02249D01*
X07346Y02245*
X07337Y02238*
X0733Y02229*
X07326Y02219*
X07325Y02209*
X07326Y02198*
X0733Y02188*
X07337Y02179*
X07346Y02172*
X07356Y02168*
X07367Y02167*
X07377Y02168*
X07387Y02172*
X07396Y02179*
X07403Y02188*
X07407Y02198*
X07408Y02209*
X07407Y02219*
X07403Y02229*
X07396Y02238*
X07387Y02245*
X07377Y02249*
X07367Y0225*
G37*
G36*
X06216Y01959D02*
Y01925D01*
X0625*
X06249Y0193*
X06245Y01939*
X06239Y01948*
X0623Y01954*
X06221Y01958*
X06216Y01959*
G37*
G36*
X06206D02*
X062Y01958D01*
X06191Y01954*
X06182Y01948*
X06176Y01939*
X06172Y0193*
X06171Y01925*
X06206*
Y01959*
G37*
G36*
X07972Y01948D02*
Y01914D01*
X08006*
X08005Y01919*
X08001Y01928*
X07995Y01937*
X07986Y01943*
X07977Y01947*
X07972Y01948*
G37*
G36*
X07962D02*
X07956Y01947D01*
X07947Y01943*
X07938Y01937*
X07932Y01928*
X07928Y01919*
X07927Y01914*
X07962*
Y01948*
G37*
G36*
X0625Y01915D02*
X06216D01*
Y0188*
X06221Y01881*
X0623Y01885*
X06239Y01891*
X06245Y019*
X06249Y01909*
X0625Y01915*
G37*
G36*
X06206D02*
X06171D01*
X06172Y01909*
X06176Y019*
X06182Y01891*
X06191Y01885*
X062Y01881*
X06206Y0188*
Y01915*
G37*
G36*
X05652Y01961D02*
X05569D01*
Y01878*
X05652*
Y01961*
G37*
G36*
X06011Y01961D02*
X06Y0196D01*
X0599Y01956*
X05981Y01949*
X05974Y0194*
X0597Y0193*
X05969Y0192*
X0597Y01909*
X05974Y01899*
X05981Y0189*
X0599Y01883*
X06Y01879*
X06011Y01878*
X06021Y01879*
X06031Y01883*
X0604Y0189*
X06047Y01899*
X06051Y01909*
X06052Y0192*
X06051Y0193*
X06047Y0194*
X0604Y01949*
X06031Y01956*
X06021Y0196*
X06011Y01961*
G37*
G36*
X05911D02*
X059Y0196D01*
X0589Y01956*
X05881Y01949*
X05874Y0194*
X0587Y0193*
X05869Y0192*
X0587Y01909*
X05874Y01899*
X05881Y0189*
X0589Y01883*
X059Y01879*
X05911Y01878*
X05921Y01879*
X05931Y01883*
X0594Y0189*
X05947Y01899*
X05951Y01909*
X05952Y0192*
X05951Y0193*
X05947Y0194*
X0594Y01949*
X05931Y01956*
X05921Y0196*
X05911Y01961*
G37*
G36*
X05811D02*
X058Y0196D01*
X0579Y01956*
X05781Y01949*
X05774Y0194*
X0577Y0193*
X05769Y0192*
X0577Y01909*
X05774Y01899*
X05781Y0189*
X0579Y01883*
X058Y01879*
X05811Y01878*
X05821Y01879*
X05831Y01883*
X0584Y0189*
X05847Y01899*
X05851Y01909*
X05852Y0192*
X05851Y0193*
X05847Y0194*
X0584Y01949*
X05831Y01956*
X05821Y0196*
X05811Y01961*
G37*
G36*
X05711D02*
X057Y0196D01*
X0569Y01956*
X05681Y01949*
X05674Y0194*
X0567Y0193*
X05669Y0192*
X0567Y01909*
X05674Y01899*
X05681Y0189*
X0569Y01883*
X057Y01879*
X05711Y01878*
X05721Y01879*
X05731Y01883*
X0574Y0189*
X05747Y01899*
X05751Y01909*
X05752Y0192*
X05751Y0193*
X05747Y0194*
X0574Y01949*
X05731Y01956*
X05721Y0196*
X05711Y01961*
G37*
G36*
X08006Y01904D02*
X07972D01*
Y01869*
X07977Y0187*
X07986Y01874*
X07995Y0188*
X08001Y01889*
X08005Y01898*
X08006Y01904*
G37*
G36*
X07962D02*
X07927D01*
X07928Y01898*
X07932Y01889*
X07938Y0188*
X07947Y01874*
X07956Y0187*
X07962Y01869*
Y01904*
G37*
G36*
X07408Y0195D02*
X07325D01*
Y01867*
X07408*
Y0195*
G37*
G36*
X07867Y0195D02*
X07856Y01949D01*
X07846Y01945*
X07837Y01938*
X0783Y01929*
X07826Y01919*
X07825Y01909*
X07826Y01898*
X0783Y01888*
X07837Y01879*
X07846Y01872*
X07856Y01868*
X07867Y01867*
X07877Y01868*
X07887Y01872*
X07896Y01879*
X07903Y01888*
X07907Y01898*
X07908Y01909*
X07907Y01919*
X07903Y01929*
X07896Y01938*
X07887Y01945*
X07877Y01949*
X07867Y0195*
G37*
G36*
X06211Y02261D02*
X062Y0226D01*
X0619Y02256*
X06181Y02249*
X06174Y0224*
X0617Y0223*
X06169Y0222*
X0617Y02209*
X06174Y02199*
X06181Y0219*
X0619Y02183*
X06191Y02183*
Y02061*
X06192Y02053*
X06196Y02046*
X0622Y02023*
X06217Y02018*
X06138*
X0613Y02017*
X06123Y02013*
X06096Y01986*
X06092Y01979*
X06091Y01972*
Y01956*
X0609Y01956*
X06081Y01949*
X06074Y0194*
X0607Y0193*
X06069Y0192*
X0607Y01909*
X06074Y01899*
X06081Y0189*
X0609Y01883*
X061Y01879*
X06111Y01878*
X06121Y01879*
X06131Y01883*
X0614Y0189*
X06147Y01899*
X06151Y01909*
X06152Y0192*
X06151Y0193*
X06147Y0194*
X0614Y01949*
X06131Y01956*
X0613Y01956*
Y01963*
X06146Y01979*
X07627*
X07647Y01959*
Y01945*
X07646Y01945*
X07637Y01938*
X0763Y01929*
X07626Y01919*
X07625Y01909*
X07626Y01898*
X0763Y01888*
X07637Y01879*
X07646Y01872*
X07656Y01868*
X07667Y01867*
X07677Y01868*
X07687Y01872*
X07696Y01879*
X07703Y01888*
X07707Y01898*
X07708Y01909*
X07707Y01919*
X07703Y01929*
X07696Y01938*
X07687Y01945*
X07686Y01945*
Y01968*
X07685Y01975*
X07681Y01982*
X07653Y0201*
X07655Y02015*
X07682*
X07747Y0195*
Y01945*
X07746Y01945*
X07737Y01938*
X0773Y01929*
X07726Y01919*
X07725Y01909*
X07726Y01898*
X0773Y01888*
X07737Y01879*
X07746Y01872*
X07756Y01868*
X07767Y01867*
X07777Y01868*
X07787Y01872*
X07796Y01879*
X07803Y01888*
X07807Y01898*
X07808Y01909*
X07807Y01919*
X07803Y01929*
X07796Y01938*
X07787Y01945*
X07786Y01945*
Y01959*
X07785Y01966*
X07781Y01973*
X07705Y02049*
X07698Y02053*
X07691Y02054*
X06245*
X0623Y02069*
Y02183*
X06231Y02183*
X0624Y0219*
X06247Y02199*
X06251Y02209*
X06252Y0222*
X06251Y0223*
X06247Y0224*
X0624Y02249*
X06231Y02256*
X06221Y0226*
X06211Y02261*
G37*
G36*
X07567Y0195D02*
X07556Y01949D01*
X07546Y01945*
X07537Y01938*
X0753Y01929*
X07526Y01919*
X07525Y01909*
X07526Y01898*
X0753Y01888*
X07537Y01879*
X07546Y01872*
X07556Y01868*
X07567Y01867*
X07577Y01868*
X07587Y01872*
X07596Y01879*
X07603Y01888*
X07607Y01898*
X07608Y01909*
X07607Y01919*
X07603Y01929*
X07596Y01938*
X07587Y01945*
X07577Y01949*
X07567Y0195*
G37*
G36*
X07467D02*
X07456Y01949D01*
X07446Y01945*
X07437Y01938*
X0743Y01929*
X07426Y01919*
X07425Y01909*
X07426Y01898*
X0743Y01888*
X07437Y01879*
X07446Y01872*
X07456Y01868*
X07467Y01867*
X07477Y01868*
X07487Y01872*
X07496Y01879*
X07503Y01888*
X07507Y01898*
X07508Y01909*
X07507Y01919*
X07503Y01929*
X07496Y01938*
X07487Y01945*
X07477Y01949*
X07467Y0195*
G37*
G36*
X05624Y01727D02*
X05615Y01726D01*
X05608Y01723*
X05601Y01718*
X05596Y01711*
X05593Y01704*
X05592Y01696*
X05593Y01687*
X05596Y0168*
X05601Y01673*
X05608Y01668*
X05615Y01665*
X05624Y01664*
X05632Y01665*
X05639Y01668*
X05641Y01669*
X05982*
X05982Y01669*
X05989Y01664*
X05996Y01661*
X06005Y0166*
X06013Y01661*
X0602Y01664*
X06027Y01669*
X06032Y01676*
X06035Y01683*
X06036Y01692*
X06035Y017*
X06032Y01707*
X06027Y01714*
X0602Y01719*
X06013Y01722*
X06005Y01723*
X05996Y01722*
X05989Y01719*
X05982Y01714*
X05982Y01714*
X05649*
X05646Y01718*
X05639Y01723*
X05632Y01726*
X05624Y01727*
G37*
G36*
X06474Y01616D02*
X06465Y01615D01*
X06458Y01612*
X06451Y01607*
X06449Y01604*
X06013*
X06011Y01607*
X06004Y01612*
X05997Y01615*
X05989Y01616*
X0598Y01615*
X05973Y01612*
X05966Y01607*
X05961Y016*
X05958Y01593*
X05957Y01585*
X05958Y01576*
X05961Y01569*
X05966Y01562*
X05973Y01557*
X0598Y01554*
X05989Y01553*
X05997Y01554*
X06004Y01557*
X06011Y01562*
X06013Y01565*
X06449*
X06451Y01562*
X06458Y01557*
X06465Y01554*
X06474Y01553*
X06482Y01554*
X06489Y01557*
X06496Y01562*
X06501Y01569*
X06504Y01576*
X06505Y01585*
X06504Y01593*
X06501Y016*
X06496Y01607*
X06489Y01612*
X06482Y01615*
X06474Y01616*
G37*
G36*
X00576Y01865D02*
X00552Y01863D01*
X0053Y01859*
X00508Y01851*
X00487Y01841*
X00468Y01828*
X0045Y01813*
X00435Y01795*
X00422Y01776*
X00412Y01755*
X00404Y01733*
X004Y01711*
X00398Y01688*
X004Y01664*
X00404Y01642*
X00412Y0162*
X00422Y01599*
X00435Y0158*
X0045Y01562*
X00468Y01547*
X00487Y01534*
X00508Y01524*
X0053Y01516*
X00552Y01512*
X00576Y0151*
X00599Y01512*
X00621Y01516*
X00643Y01524*
X00664Y01534*
X00683Y01547*
X00701Y01562*
X00716Y0158*
X00729Y01599*
X00739Y0162*
X00747Y01642*
X00751Y01664*
X00753Y01688*
X00751Y01711*
X00747Y01733*
X00739Y01755*
X00729Y01776*
X00716Y01795*
X00701Y01813*
X00683Y01828*
X00664Y01841*
X00643Y01851*
X00621Y01859*
X00599Y01863*
X00576Y01865*
G37*
G36*
X06571Y01505D02*
X06562Y01504D01*
X06555Y01501*
X06548Y01496*
X06546Y01493*
X06326*
X06318Y01492*
X06318Y01492*
X06313Y01492*
X06304Y01491*
X06297Y01488*
X0629Y01483*
X06285Y01476*
X06282Y01469*
X06281Y01461*
X06282Y01452*
X06285Y01445*
X0629Y01438*
X06297Y01433*
X06304Y0143*
X06313Y01429*
X06321Y0143*
X06328Y01433*
X06335Y01438*
X0634Y01445*
X06343Y01452*
X06344Y01454*
X06458*
X06459Y01449*
X06455Y01448*
X06448Y01444*
X06436Y01431*
X06433Y01431*
X06424Y0143*
X06417Y01427*
X0641Y01422*
X06405Y01415*
X06402Y01408*
X06401Y014*
X06402Y01391*
X06405Y01384*
X0641Y01377*
X06417Y01372*
X06424Y01369*
X06433Y01368*
X06441Y01369*
X06448Y01372*
X06455Y01377*
X0646Y01384*
X06463Y01391*
X06464Y014*
X06464Y01403*
X06471Y0141*
X06643*
X06645Y01407*
X06652Y01402*
X06659Y01399*
X06668Y01398*
X06676Y01399*
X06683Y01402*
X0669Y01407*
X06695Y01414*
X06698Y01421*
X06699Y0143*
X06698Y01438*
X06695Y01445*
X0669Y01452*
X06683Y01457*
X06676Y0146*
X06668Y01461*
X06659Y0146*
X06652Y01457*
X06645Y01452*
X06643Y01449*
X06598*
X06596Y01454*
X06598Y01458*
X06601Y01465*
X06602Y01474*
X06601Y01482*
X06598Y01489*
X06593Y01496*
X06586Y01501*
X06579Y01504*
X06571Y01505*
G37*
G36*
X06509Y01398D02*
X065Y01397D01*
X06493Y01394*
X06486Y01389*
X06481Y01382*
X06478Y01375*
X06477Y01367*
X06478Y01358*
X06481Y01351*
X06486Y01344*
X06493Y01339*
X065Y01336*
X06509Y01335*
X06517Y01336*
X06524Y01339*
X06531Y01344*
X06533Y01346*
X06945*
X06948Y01343*
X06955Y01338*
X06962Y01335*
X06971Y01334*
X06979Y01335*
X06986Y01338*
X06993Y01343*
X06998Y0135*
X07001Y01357*
X07002Y01366*
X07001Y01374*
X06998Y01381*
X06993Y01388*
X06986Y01393*
X06979Y01396*
X06971Y01397*
X06962Y01396*
X06955Y01393*
X06948Y01388*
X06946Y01386*
X06534*
X06531Y01389*
X06524Y01394*
X06517Y01397*
X06509Y01398*
G37*
G36*
X07065Y01333D02*
X07056Y01332D01*
X07049Y01329*
X07042Y01324*
X07039Y01321*
X06586*
X06584Y01323*
X06577Y01328*
X0657Y01331*
X06562Y01332*
X06553Y01331*
X06546Y01328*
X06539Y01323*
X06534Y01316*
X06531Y01309*
X0653Y01301*
X06531Y01292*
X06534Y01285*
X06539Y01278*
X06545Y01273*
X06544Y01271*
X06543Y01268*
X06414*
X06412Y01271*
X06405Y01276*
X06398Y01279*
X0639Y0128*
X06381Y01279*
X06374Y01276*
X06367Y01271*
X06362Y01264*
X06359Y01257*
X06358Y01249*
X06359Y0124*
X06362Y01233*
X06367Y01226*
X06374Y01221*
X06381Y01218*
X0639Y01217*
X06398Y01218*
X06405Y01221*
X06412Y01226*
X06414Y01229*
X06849*
X06851Y01226*
X06858Y01221*
X06865Y01218*
X06874Y01217*
X06882Y01218*
X06889Y01221*
X06896Y01226*
X06901Y01233*
X06904Y0124*
X06905Y01249*
X06904Y01257*
X06901Y01264*
X06896Y01271*
X0689Y01276*
X0689Y01276*
X06891Y01281*
X0704*
X07042Y01279*
X07049Y01274*
X07056Y01271*
X07065Y0127*
X07073Y01271*
X0708Y01274*
X07087Y01279*
X07092Y01286*
X07095Y01293*
X07096Y01302*
X07095Y0131*
X07092Y01317*
X07087Y01324*
X0708Y01329*
X07073Y01332*
X07065Y01333*
G37*
G36*
X06043Y01357D02*
X06034Y01356D01*
X06027Y01353*
X0602Y01348*
X06015Y01341*
X06012Y01334*
X06011Y01326*
X06012Y01317*
X06015Y0131*
X0602Y01303*
X06027Y01298*
X06034Y01295*
X06043Y01294*
X06051Y01295*
X06058Y01298*
X06065Y01303*
X06067Y01306*
X06206*
X06209Y01302*
X06216Y01297*
X06223Y01294*
X06232Y01293*
X0624Y01294*
X06247Y01297*
X06254Y01302*
X06259Y01309*
X06262Y01316*
X06263Y01325*
X06262Y01333*
X06259Y0134*
X06254Y01347*
X06247Y01352*
X0624Y01355*
X06232Y01356*
X06223Y01355*
X06216Y01352*
X06209Y01347*
X06208Y01345*
X06067*
X06065Y01348*
X06058Y01353*
X06051Y01356*
X06043Y01357*
G37*
G36*
X00581Y01073D02*
Y01003D01*
X00619*
Y01031*
X00617Y01042*
X00613Y01052*
X00606Y01061*
X00597Y01068*
X00587Y01072*
X00581Y01073*
G37*
G36*
X00571D02*
X00564Y01072D01*
X00554Y01068*
X00545Y01061*
X00538Y01052*
X00534Y01042*
X00532Y01031*
Y01003*
X00571*
Y01073*
G37*
G36*
X05786Y01043D02*
X05777Y01042D01*
X0577Y01039*
X05763Y01034*
X05758Y01027*
X05755Y0102*
X05754Y01012*
X05755Y01003*
X05758Y00996*
X05763Y00989*
X0577Y00984*
X05777Y00981*
X05786Y0098*
X05794Y00981*
X05801Y00984*
X05808Y00989*
X07345*
X07347Y00986*
X07354Y00981*
X07361Y00978*
X0737Y00977*
X07378Y00978*
X07385Y00981*
X07392Y00986*
X07397Y00993*
X074Y01*
X07401Y01009*
X074Y01017*
X07397Y01024*
X07392Y01031*
X07385Y01036*
X07378Y01039*
X0737Y0104*
X07361Y01039*
X07354Y01036*
X07347Y01031*
X07345Y01028*
X05812*
X05808Y01034*
X05801Y01039*
X05794Y01042*
X05786Y01043*
G37*
G36*
X00619Y00993D02*
X00581D01*
Y00922*
X00587Y00923*
X00597Y00927*
X00606Y00934*
X00613Y00943*
X00617Y00953*
X00619Y00965*
Y00993*
G37*
G36*
X00571D02*
X00532D01*
Y00965*
X00534Y00953*
X00538Y00943*
X00545Y00934*
X00554Y00927*
X00564Y00923*
X00571Y00922*
Y00993*
G37*
G36*
X00676Y01076D02*
X00664Y01074D01*
X00653Y0107*
X00643Y01063*
X00636Y01053*
X00632Y01042*
X0063Y01031*
Y00965*
X00632Y00953*
X00636Y00942*
X00643Y00932*
X00653Y00925*
X00664Y00921*
X00676Y00919*
X00687Y00921*
X00698Y00925*
X00708Y00932*
X00715Y00942*
X00719Y00953*
X00721Y00965*
Y01031*
X00719Y01042*
X00715Y01053*
X00708Y01063*
X00698Y0107*
X00687Y01074*
X00676Y01076*
G37*
G36*
X04011Y00883D02*
Y00854D01*
X0404*
X0404Y00858*
X04036Y00866*
X0403Y00873*
X04023Y00879*
X04015Y00883*
X04011Y00883*
G37*
G36*
X04001D02*
X03996Y00883D01*
X03988Y00879*
X03981Y00873*
X03975Y00866*
X03971Y00858*
X03971Y00854*
X04001*
Y00883*
G37*
G36*
X0677Y00837D02*
X06761Y00836D01*
X06754Y00833*
X06747Y00828*
X06744Y00825*
X06289*
X06287Y00827*
X0628Y00832*
X06273Y00835*
X06265Y00836*
X06256Y00835*
X06249Y00832*
X06242Y00827*
X06237Y0082*
X06234Y00813*
X06233Y00805*
X06234Y00796*
X06237Y00789*
X06242Y00782*
X06249Y00777*
X06256Y00774*
X06265Y00773*
X06273Y00774*
X0628Y00777*
X06287Y00782*
X0629Y00785*
X06745*
X06747Y00783*
X06754Y00778*
X06761Y00775*
X0677Y00774*
X06778Y00775*
X06785Y00778*
X06792Y00783*
X06797Y0079*
X068Y00797*
X06801Y00806*
X068Y00814*
X06797Y00821*
X06792Y00828*
X06785Y00833*
X06778Y00836*
X0677Y00837*
G37*
%LN2004_lcd-3*%
%LPD*%
G36*
X00599Y01839D02*
X00623Y01833D01*
X00645Y01824*
X00665Y01811*
X00684Y01796*
X00699Y01777*
X00712Y01757*
X00721Y01735*
X00727Y01711*
X00728Y01688*
X00727Y01664*
X00721Y0164*
X00712Y01618*
X00699Y01598*
X00684Y01579*
X00665Y01564*
X00645Y01551*
X00623Y01542*
X00599Y01536*
X00576Y01535*
X00552Y01536*
X00528Y01542*
X00506Y01551*
X00486Y01564*
X00467Y01579*
X00452Y01598*
X00439Y01618*
X0043Y0164*
X00424Y01664*
X00423Y01688*
X00424Y01711*
X0043Y01735*
X00439Y01757*
X00452Y01777*
X00467Y01796*
X00486Y01811*
X00506Y01824*
X00528Y01833*
X00552Y01839*
X00576Y0184*
X00599Y01839*
G37*
G36*
X06857Y01276D02*
X06857Y01276D01*
X06851Y01271*
X06849Y01268*
X0658*
X06579Y01271*
X06578Y01273*
X06584Y01278*
X06587Y01281*
X06856*
X06857Y01276*
G37*
%LN2004_lcd-4*%
%LPC*%
G36*
X00576Y01765D02*
X0056Y01763D01*
X00546Y01759*
X00533Y01752*
X00521Y01742*
X00511Y0173*
X00504Y01717*
X005Y01703*
X00498Y01688*
X005Y01672*
X00504Y01658*
X00511Y01645*
X00521Y01633*
X00533Y01623*
X00546Y01616*
X0056Y01612*
X00576Y0161*
X00591Y01612*
X00605Y01616*
X00618Y01623*
X0063Y01633*
X0064Y01645*
X00647Y01658*
X00651Y01672*
X00653Y01688*
X00651Y01703*
X00647Y01717*
X0064Y0173*
X0063Y01742*
X00618Y01752*
X00605Y01759*
X00591Y01763*
X00576Y01765*
G37*
%LN2004_lcd-5*%
%LPD*%
G54D18*
X0161Y0044D03*
X07775D03*
G54D19*
X01755Y0044D03*
X0188D03*
X02005D03*
X0213D03*
X02255D03*
X0238D03*
X02505D03*
X0263D03*
X0288D03*
X03005D03*
X0313D03*
X03255D03*
X0338D03*
X03505D03*
X0363D03*
X03755D03*
X0388D03*
X0413D03*
X04255D03*
X0438D03*
X04505D03*
X0463D03*
X04755D03*
X0488D03*
X05005D03*
X0513D03*
X0538D03*
X05505D03*
X0563D03*
X05755D03*
X0588D03*
X06005D03*
X0613D03*
X06255D03*
X0638D03*
X0663D03*
X06755D03*
X0688D03*
X07005D03*
X0713D03*
X07255D03*
X0738D03*
X07505D03*
X0763D03*
G54D20*
X02755Y0044D03*
X04005D03*
X05255D03*
X06505D03*
G54D34*
X0735Y02427D02*
X07352Y02429D01*
X06162Y02427D02*
X0735D01*
X06161Y02426D02*
X06162Y02427D01*
X06231Y01326D02*
X06232Y01325D01*
X06043Y01326D02*
X06231D01*
X05789Y01009D02*
X0737D01*
X05786Y01012D02*
X05789Y01009D01*
X05989Y01585D02*
X06474D01*
X06313Y01461D02*
X06326Y01474D01*
X06571*
X06312Y00627D02*
Y00642D01*
X06255Y0057D02*
X06312Y00627D01*
X06255Y0044D02*
Y0057D01*
X06265Y00805D02*
X06265Y00805D01*
X06769*
X0677Y00806*
X06463Y0143D02*
X06668D01*
X06433Y014D02*
X06463Y0143D01*
X06429Y00619D02*
Y00658D01*
X0638Y0057D02*
X06429Y00619D01*
X0638Y0044D02*
Y0057D01*
X0639Y01249D02*
X06874D01*
X07064Y01301D02*
X07065Y01302D01*
X06562Y01301D02*
X07064D01*
X06562Y01301D02*
X06562Y01301D01*
X06532Y00654D02*
X06561Y00683D01*
X06532Y00467D02*
Y00654D01*
X06505Y0044D02*
X06532Y00467D01*
X0697Y01366D02*
X06971Y01366D01*
X06509Y01366D02*
X0697D01*
X06509Y01367D02*
X06509Y01366D01*
X05674Y00666D02*
Y00876D01*
X05638Y00912D02*
X05674Y00876D01*
X05042Y00912D02*
X05638D01*
X05755Y0044D02*
Y00585D01*
X05674Y00666D02*
X05755Y00585D01*
X07122Y02289D02*
X0714Y02271D01*
X0583Y02289D02*
X07122D01*
X05813Y02272D02*
X0583Y02289D01*
X05813Y02222D02*
Y02272D01*
X05811Y0222D02*
X05813Y02222D01*
X05973Y05317D02*
Y05437D01*
X05929Y05481D02*
X05973Y05437D01*
X04977Y05481D02*
X05929D01*
X04915Y05419D02*
X04977Y05481D01*
X04915Y05314D02*
Y05419D01*
X05033Y02582D02*
X05035Y02584D01*
X06073*
X05749Y02333D02*
X07519D01*
X05711Y02295D02*
X05749Y02333D01*
X05711Y0222D02*
Y02295D01*
X07767Y01909D02*
Y01959D01*
X07691Y02035D02*
X07767Y01959D01*
X06237Y02035D02*
X07691D01*
X06211Y02061D02*
X06237Y02035D01*
X06211Y02061D02*
Y0222D01*
X07667Y01909D02*
Y01968D01*
X07636Y01999D02*
X07667Y01968D01*
X06138Y01999D02*
X07636D01*
X06111Y01972D02*
X06138Y01999D01*
X06111Y0192D02*
Y01972D01*
X06111Y0192D02*
X06111Y0192D01*
X0613Y0044D02*
Y00674D01*
X06163Y00707*
G54D35*
X04005Y00848D02*
X04006Y00849D01*
X04005Y0044D02*
Y00848D01*
X04005Y0044D02*
X04005Y0044D01*
G54D36*
X05628Y01692D02*
X06005D01*
X05624Y01696D02*
X05628Y01692D01*
X05878Y00681D02*
X05879Y0068D01*
Y00441D02*
Y0068D01*
Y00441D02*
X0588Y0044D01*
X05973Y00814D02*
X06005Y00782D01*
Y0044D02*
Y00782D01*
X05718Y00814D02*
X05973D01*
G54D37*
X07173Y05102D02*
X0726Y05015D01*
X09351*
X07173Y05102D02*
Y05317D01*
X00474Y00915D02*
Y00996D01*
X00476Y00998*
X00474Y00915D02*
X00553Y00836D01*
X01557*
X0161Y00783*
Y0044D02*
Y00783D01*
G54D38*
X07273Y05317D03*
X07173D03*
X07073D03*
X06973D03*
X06873D03*
X06773D03*
X06673D03*
X06573D03*
X06473D03*
X06373D03*
X06273D03*
X06173D03*
X06073D03*
X05973D03*
X05873D03*
X07967Y02209D03*
X07867D03*
X07767D03*
X07667D03*
X07567D03*
X07467D03*
X07367D03*
X07967Y01909D03*
X07867D03*
X07767D03*
X07667D03*
X07567D03*
X07467D03*
X06211Y0222D03*
X06111D03*
X06011D03*
X05911D03*
X05811D03*
X05711D03*
X05611D03*
X06211Y0192D03*
X06111D03*
X06011D03*
X05911D03*
X05811D03*
X05711D03*
G54D39*
X05773Y05317D03*
G54D40*
X05015Y05314D03*
G54D41*
X04915Y05314D03*
X04815D03*
G54D42*
X09351Y04615D03*
Y05015D03*
G54D43*
X00576Y01688D03*
G54D44*
X00676Y00998D03*
X00576D03*
X00476D03*
G54D45*
X07367Y01909D03*
X05611Y0192D03*
G54D46*
X07352Y02429D03*
X06161Y02426D03*
X06232Y01325D03*
X06043Y01326D03*
X06474Y01585D03*
X05989D03*
X06571Y01474D03*
X06313Y01461D03*
X06312Y00642D03*
X06265Y00805D03*
X0677Y00806D03*
X06668Y0143D03*
X06433Y014D03*
X06429Y00658D03*
X0639Y01249D03*
X06874D03*
X07065Y01302D03*
X06562Y01301D03*
X06561Y00683D03*
X06971Y01366D03*
X06509Y01367D03*
X0714Y02271D03*
X05042Y00912D03*
X05033Y02582D03*
X06073Y02584D03*
X07519Y02333D03*
X06005Y01692D03*
X05786Y01012D03*
X0737Y01009D03*
X06163Y00707D03*
X05624Y01696D03*
X05878Y00681D03*
X05718Y00814D03*
G54D47*
X04006Y00849D03*
M02*